<?xml version="1.0" standalone="no"?>
<!DOCTYPE svg PUBLIC "-//W3C//DTD SVG 20010904//EN"
 "http://www.w3.org/TR/2001/REC-SVG-20010904/DTD/svg10.dtd">
<svg version="1.0" xmlns="http://www.w3.org/2000/svg"
 width="1890.000000pt" height="1417.000000pt" viewBox="0 0 1890.000000 1417.000000"
 preserveAspectRatio="xMidYMid meet">

<g transform="translate(0.000000,1417.000000) scale(0.100000,-0.100000)"
fill="#ffffff" stroke="none">
<path d="M5820 13643 c-1496 -112 -2740 -1082 -3201 -2498 -51 -155 -103 -368
-128 -520 -48 -294 -46 -176 -46 -3560 0 -3019 1 -3198 18 -3335 143 -1146
760 -2103 1736 -2694 384 -233 819 -391 1330 -481 l194 -35 3281 0 3282 0 199
35 c221 39 357 73 545 136 1188 395 1971 1171 2356 2334 73 221 124 421 159
625 l25 144 0 3287 0 3286 -35 199 c-42 234 -74 359 -150 584 -433 1272 -1316
2075 -2651 2409 -162 41 -338 68 -514 81 -132 9 -6278 12 -6400 3z m6155
-1173 c143 -5 309 -16 368 -24 617 -88 1112 -374 1507 -871 158 -199 344 -525
415 -725 59 -166 105 -380 124 -577 7 -68 11 -1158 11 -3195 0 -2735 -1 -3107
-15 -3218 -70 -560 -316 -1063 -714 -1460 -203 -202 -409 -347 -672 -474 -263
-127 -506 -193 -824 -225 -65 -7 -1196 -11 -3185 -11 -2761 -1 -3098 1 -3205
15 -733 97 -1371 489 -1768 1087 -232 349 -360 721 -397 1153 -6 78 -10 1191
-10 3165 0 3309 -3 3145 55 3417 187 888 854 1610 1715 1858 124 36 310 70
455 84 123 11 5815 13 6140 1z"/>
<path d="M12380 11445 c-350 -71 -622 -343 -690 -693 -19 -94 -8 -299 20 -387
94 -295 308 -502 607 -587 104 -30 313 -32 418 -4 484 127 764 622 613 1086
-131 406 -564 667 -968 585z"/>
<path d="M8790 10463 c-294 -27 -455 -55 -670 -113 -1233 -334 -2191 -1360
-2434 -2608 -49 -250 -60 -368 -60 -657 0 -288 11 -407 60 -656 164 -845 667
-1614 1380 -2115 450 -315 961 -514 1514 -589 166 -22 505 -30 685 -16 975 79
1856 564 2446 1347 242 321 423 681 543 1077 140 463 173 1015 90 1512 -241
1429 -1392 2568 -2817 2784 -230 35 -565 51 -737 34z m530 -1189 c887 -128
1604 -769 1825 -1629 52 -202 69 -341 69 -565 0 -279 -40 -516 -129 -756 -290
-782 -970 -1323 -1805 -1435 -138 -19 -439 -16 -585 5 -633 92 -1181 438
-1537 971 -88 132 -199 363 -251 522 -79 242 -110 438 -110 698 0 99 5 218 12
265 59 428 212 793 470 1120 345 437 887 740 1451 809 185 23 410 21 590 -5z"/>
</g>
</svg>
