<?xml version="1.0" encoding="utf-8"?>
<!-- Generator: Adobe Illustrator 27.0.1, SVG Export Plug-In . SVG Version: 6.00 Build 0)  -->
<svg version="1.1" id="Layer_1" xmlns="http://www.w3.org/2000/svg" xmlns:xlink="http://www.w3.org/1999/xlink" x="0px" y="0px"
	 viewBox="0 0 504 360" style="enable-background:new 0 0 504 360;" xml:space="preserve">
<g>
	<path d="M343.6,359.36c-59.41,0-118.82,0-178.23,0c-3.55-0.63-7.12-1.17-10.66-1.9c-46.78-9.6-79.74-49.76-79.83-97.54
		c-0.1-53.45-0.09-106.9,0.06-160.34c0.02-6.51,0.57-13.12,1.84-19.49c9.38-46.96,49.7-79.96,97.66-80.03
		c53.32-0.08,106.64-0.08,159.96,0.06c6.62,0.02,13.41,0.43,19.83,1.91c40.11,9.24,65.82,33.84,76.95,73.5
		c1.37,4.9,1.98,10.01,2.94,15.03c0,59.42,0,118.84,0,178.27c-0.62,3.54-1.08,7.11-1.9,10.6c-9.42,40.07-33.89,65.83-73.54,76.98
		C353.76,357.79,348.63,358.4,343.6,359.36z M254.48,32.21c0-0.05,0-0.11,0-0.16c-26.08,0-52.16,0.02-78.24-0.01
		c-7.99-0.01-15.82,0.87-23.45,3.4c-25.91,8.58-46.23,33.64-46.01,65.65c0.35,52.4,0.1,104.8,0.09,157.21
		c0,7.88,0.91,15.59,3.4,23.11c8.6,26,33.75,46.24,65.64,46.03c52.39-0.35,104.78-0.1,157.17-0.09c7.87,0,15.59-0.9,23.1-3.4
		c26.11-8.69,46.17-33.74,46-65.3c-0.28-52.63-0.11-105.27-0.05-157.91c0.01-11.3-1.98-22.14-7.39-32.08
		c-12.16-22.33-30.85-35.45-56.42-36.25C310.39,31.54,282.42,32.21,254.48,32.21z"/>
	<path d="M347.08,179.58c0.07,50.93-41.45,92.6-92.39,92.73c-51.06,0.12-92.83-41.59-92.8-92.67c0.04-50.95,41.63-92.53,92.57-92.55
		C305.39,87.06,347.01,128.63,347.08,179.58z M254.6,240.22c33.6-0.1,60.57-27.22,60.4-60.73c-0.17-33.5-27-60.28-60.46-60.33
		c-33.56-0.05-60.6,26.98-60.58,60.56C193.99,213.31,221.05,240.32,254.6,240.22z"/>
	<path d="M351.1,106.77c-12.93,0.07-23.54-10.39-23.58-23.26c-0.04-12.76,10.7-23.52,23.45-23.49c12.79,0.03,23.5,10.8,23.42,23.54
		C374.31,96.28,363.85,106.7,351.1,106.77z"/>
</g>
</svg>
