<?xml version="1.0" encoding="utf-8"?>
<!-- Generator: Adobe Illustrator 27.0.1, SVG Export Plug-In . SVG Version: 6.00 Build 0)  -->
<svg version="1.1" id="Layer_1" fill="#fff" xmlns="http://www.w3.org/2000/svg" xmlns:xlink="http://www.w3.org/1999/xlink" x="0px" y="0px"
	 viewBox="0 0 504 360" style="enable-background:new 0 0 504 360;" xml:space="preserve">
<path d="M500.51,17.98c-0.5-1.28-1.14-2.49-1.91-3.62c-0.29-0.43-0.53-0.89-0.79-1.33c-1.77-3.02-4.14-5.25-7.14-6.7H22.08
	c-0.14,0.02-0.28,0.04-0.43,0.04c-0.98,0.01-1.96,0.09-2.94,0.23c-4.66,0.64-9.55,3.87-11.41,9.66c-0.44,1.38-0.75,2.79-0.93,4.23
	c-0.23,1.81-0.33,3.62-0.43,5.44c-0.17,2.93-0.18,5.87-0.32,8.81c-0.02,0.41-0.03,0.82-0.04,1.23c-0.08,4.65-0.17,9.3-0.25,13.94
	c-0.11,7.03-0.21,14.06-0.3,21.08c-0.08,5.95-0.16,11.9-0.23,17.85c-0.08,6.54-0.15,13.09-0.22,19.63
	c-0.08,7.59-0.16,15.17-0.23,22.76c-0.07,7.7-0.14,15.39-0.2,23.09c-0.08,9.48-0.16,18.96-0.24,28.45
	c-0.07,8.89-0.13,17.77-0.19,26.66c-0.08,11.68-0.17,23.35-0.24,35.03c-0.07,10.56-0.13,21.12-0.19,31.68
	c-0.08,14.06-0.16,28.11-0.25,42.17c-0.01,2.16-0.06,4.31-0.1,6.47c-0.01,0.56-0.04,1.11-0.09,1.67c-0.01,0.14-0.11,0.27-0.17,0.4
	c0,2.9,0,5.8,0,8.7c0.15,0.05,0.26,0.15,0.29,0.3c0.05,0.25,0.1,0.51,0.13,0.77c0.47,4.13,2.13,7.69,4.93,10.69
	c1.21,1.3,2.6,2.37,4.14,3.25c1.6,0.92,3.27,1.62,5.06,2.05c0.67,0.16,1.35,0.32,2.04,0.38c0.18,0.01,0.36,0.04,0.5,0.19
	c155.25,0,310.51,0,465.76,0c0.1-0.05,0.19-0.12,0.29-0.13c0.25-0.03,0.51-0.04,0.76-0.05c2.26-0.14,4.35-0.84,6.28-2.06
	c2.56-1.62,4.56-3.79,6.16-6.37c1.08-1.74,1.86-3.61,2.33-5.62c0.09-0.4,0.13-0.8,0.16-1.21c0.02-0.23,0.06-0.44,0.21-0.62
	c0-104.89,0-209.77,0-314.66c-0.08-0.2-0.2-0.39-0.21-0.63C501.44,20.48,500.99,19.22,500.51,17.98z M73.81,37.94
	c0.1-0.04,0.21-0.04,0.32-0.04c0.44,0,0.88,0,1.31,0c60.37,0,120.74,0,181.11,0c60.52,0,121.03,0,181.55,0
	c0.44,0,0.87,0.02,1.31,0.04c0.03,0,0.06,0.11,0.07,0.18c0.01,0.03-0.01,0.08-0.03,0.1c-0.08,0.08-0.16,0.16-0.24,0.23
	c-3.08,2.68-6.16,5.36-9.23,8.05c-3.13,2.73-6.27,5.46-9.4,8.19c-2.41,2.1-4.82,4.21-7.24,6.31c-2.75,2.39-5.5,4.77-8.24,7.16
	c-4.02,3.5-8.03,7.02-12.05,10.52c-3.08,2.68-6.15,5.37-9.23,8.05c-2.99,2.61-5.99,5.22-8.98,7.83c-3.08,2.68-6.15,5.36-9.23,8.05
	c-2.97,2.59-5.93,5.17-8.9,7.76c-3.08,2.68-6.15,5.36-9.23,8.05c-2.94,2.56-5.88,5.12-8.82,7.68c-3.3,2.87-6.6,5.75-9.9,8.62
	c-3.08,2.68-6.15,5.36-9.23,8.05c-3.05,2.66-6.1,5.32-9.15,7.97c-3.1,2.71-6.21,5.41-9.31,8.12c-3.02,2.63-6.04,5.27-9.07,7.9
	c-3.05,2.66-6.1,5.32-9.15,7.97c-3.02,2.63-6.04,5.27-9.07,7.9c-3.11,2.7-6.23,5.39-9.35,8.08c-2.37,2.04-4.74,4.08-7.11,6.12
	c-0.17,0.14-0.33,0.29-0.5,0.43c-0.24,0.2-0.36,0.21-0.58,0.03c-0.31-0.26-0.62-0.52-0.92-0.79c-1.74-1.53-3.48-3.06-5.23-4.58
	c-2.52-2.2-5.06-4.38-7.58-6.58c-3.11-2.7-6.21-5.41-9.32-8.12c-2.99-2.61-5.99-5.22-8.98-7.83c-3.11-2.71-6.21-5.41-9.32-8.12
	c-2.94-2.56-5.88-5.12-8.82-7.68c-3.13-2.73-6.27-5.46-9.4-8.19c-2.83-2.46-5.66-4.93-8.48-7.39c-3.22-2.8-6.43-5.61-9.65-8.41
	c-2.91-2.54-5.82-5.07-8.73-7.61c-3.27-2.85-6.54-5.7-9.81-8.56c-3.1-2.71-6.21-5.41-9.31-8.12c-3.11-2.71-6.21-5.41-9.32-8.11
	c-3.05-2.66-6.1-5.32-9.15-7.97c-3.05-2.66-6.1-5.32-9.15-7.97c-3.05-2.66-6.1-5.31-9.15-7.97c-2.58-2.25-5.14-4.51-7.72-6.76
	c-3.41-2.97-6.83-5.93-10.24-8.9c-3.08-2.68-6.16-5.36-9.23-8.05c-2.97-2.59-5.93-5.17-8.9-7.76c-1.28-1.11-2.55-2.22-3.82-3.34
	c-0.11-0.09-0.19-0.22-0.27-0.34C73.73,38.09,73.77,37.96,73.81,37.94z M54.34,286.74c-2.61,2.65-5.22,5.3-7.83,7.95
	c-2.56,2.6-5.12,5.2-7.67,7.8c-1.81,1.84-3.62,3.67-5.43,5.51c-0.21,0.21-0.42,0.41-0.64,0.61c-0.04,0.04-0.14,0.03-0.19,0.01
	c-0.05-0.03-0.1-0.11-0.1-0.17c-0.01-0.33-0.02-0.67-0.02-1c0.02-2.9,0.04-5.8,0.05-8.7c0.06-9.93,0.11-19.86,0.17-29.79
	c0.03-5.17,0.1-10.34,0.13-15.51c0.05-7.33,0.06-14.65,0.11-21.98c0.03-5.09,0.1-10.19,0.13-15.28c0.05-6.62,0.08-13.24,0.12-19.86
	c0.06-8.33,0.12-16.66,0.18-24.99c0.07-8.67,0.14-17.33,0.22-26c0.07-7.92,0.14-15.84,0.22-23.76c0.07-7.07,0.14-14.13,0.22-21.2
	c0.08-6.77,0.16-13.54,0.25-20.3c0.07-5.35,0.15-10.71,0.22-16.06c0.06-4.98,0.09-9.97,0.14-14.95c0-0.33,0.02-0.67,0.05-1
	c0-0.03,0.14-0.1,0.17-0.08c0.19,0.11,0.37,0.23,0.53,0.37c0.83,0.72,1.65,1.46,2.49,2.19c2.19,1.91,4.39,3.8,6.58,5.71
	c1.83,1.59,3.65,3.2,5.48,4.8c2.75,2.39,5.5,4.77,8.24,7.16c4.05,3.53,8.09,7.07,12.13,10.6c3.05,2.66,6.1,5.32,9.15,7.97
	c3.02,2.63,6.04,5.27,9.07,7.9c3.08,2.68,6.15,5.36,9.23,8.05c2.97,2.59,5.93,5.17,8.9,7.76c3.08,2.68,6.15,5.36,9.23,8.05
	c2.94,2.56,5.88,5.12,8.82,7.68c3.27,2.85,6.55,5.7,9.82,8.55c3.08,2.68,6.16,5.36,9.23,8.05c3.02,2.63,6.04,5.27,9.06,7.9
	c3.13,2.73,6.26,5.46,9.4,8.19c2.88,2.51,5.77,5.02,8.65,7.54c0.25,0.22,0.5,0.43,0.73,0.67c0.07,0.07,0.09,0.19,0.15,0.32
	c-0.61,0.64-1.22,1.28-1.84,1.91c-2.09,2.12-4.2,4.24-6.29,6.37c-1.71,1.73-3.4,3.48-5.1,5.21c-3.23,3.28-6.46,6.56-9.69,9.84
	c-2.56,2.6-5.12,5.2-7.67,7.8c-2.69,2.73-5.37,5.46-8.06,8.19c-2.35,2.39-4.7,4.78-7.05,7.17c-2.87,2.91-5.74,5.83-8.6,8.74
	c-2.64,2.68-5.27,5.35-7.91,8.03c-2.56,2.6-5.12,5.2-7.67,7.8c-2.74,2.78-5.48,5.56-8.22,8.35c-2.51,2.55-5.01,5.09-7.52,7.64
	c-2.51,2.55-5.01,5.09-7.52,7.64c-2.79,2.84-5.58,5.67-8.37,8.51c-2.64,2.68-5.27,5.36-7.91,8.03
	C59.67,281.33,57.01,284.04,54.34,286.74z M450.33,323.03c-0.29,0.03-0.58,0.04-0.87,0.04c-2.95-0.01-5.91-0.01-8.86-0.04
	c-11.12-0.13-22.25-0.19-33.37-0.24c-5.51-0.03-11.01-0.11-16.52-0.15c-5.62-0.04-11.23-0.06-16.85-0.1
	c-10.07-0.07-20.13-0.11-30.2-0.23c-8.79-0.11-17.58-0.08-26.37-0.19c-11.2-0.14-22.4-0.12-33.59-0.26
	c-8.79-0.11-17.58-0.11-26.37-0.18c-5.51-0.05-11.01-0.11-16.52-0.15c-5.58-0.04-11.16-0.06-16.74-0.1
	c-10.18-0.07-20.35-0.11-30.53-0.24c-8.72-0.1-17.43-0.1-26.15-0.18c-4.01-0.04-8.02-0.1-12.04-0.14c-4.27-0.04-8.54-0.05-12.8-0.08
	c-4.3-0.04-8.61-0.1-12.91-0.13c-5.95-0.04-11.89-0.06-17.84-0.1c-4.05-0.03-8.1-0.09-12.15-0.12c-5.98-0.04-11.96-0.06-17.95-0.1
	c-4.16-0.03-8.32-0.09-12.47-0.13c-1.93-0.02-3.87-0.02-5.8-0.04c-0.14,0-0.27-0.05-0.4-0.09c-0.02-0.01-0.06-0.08-0.05-0.09
	c0.08-0.12,0.15-0.25,0.25-0.35c1.6-1.63,3.21-3.25,4.81-4.87c3.02-3.07,6.05-6.14,9.07-9.21c2.61-2.65,5.22-5.3,7.83-7.95
	c2.53-2.57,5.06-5.14,7.6-7.72c2.48-2.52,4.96-5.04,7.44-7.56c2.53-2.57,5.07-5.14,7.6-7.72c2.92-2.97,5.84-5.93,8.76-8.9
	c2.64-2.68,5.27-5.35,7.91-8.03c2.58-2.62,5.17-5.25,7.75-7.88c2.48-2.52,4.96-5.04,7.44-7.56c2.58-2.63,5.17-5.25,7.75-7.88
	c2.89-2.94,5.79-5.88,8.68-8.82c2.66-2.7,5.32-5.4,7.99-8.11c2.58-2.62,5.17-5.25,7.75-7.87c2.48-2.52,4.96-5.04,7.44-7.56
	c2.76-2.81,5.53-5.62,8.29-8.43c2.04-2.07,4.08-4.15,6.12-6.22c0.2-0.2,0.36-0.47,0.71-0.56c0.21,0.16,0.45,0.34,0.67,0.53
	c1.11,0.96,2.22,1.93,3.33,2.9c3.24,2.83,6.49,5.66,9.73,8.48c2.88,2.51,5.77,5.02,8.65,7.54c3.19,2.78,6.37,5.56,9.56,8.35
	c2.91,2.54,5.81,5.08,8.73,7.62c3.49,3.04,6.99,6.08,10.5,9.11c0.61,0.53,1.24,1.04,1.89,1.52c1.79,1.33,3.75,2.28,5.91,2.8
	c1.44,0.34,2.88,0.44,4.35,0.33c1.9-0.15,3.74-0.58,5.51-1.33c1.74-0.73,3.3-1.73,4.67-3.05c0.55-0.54,1.14-1.05,1.72-1.55
	c1.72-1.5,3.44-3,5.16-4.49c3.13-2.73,6.27-5.46,9.4-8.19c2.94-2.56,5.88-5.12,8.82-7.68c3.13-2.73,6.27-5.46,9.4-8.19
	c2.91-2.54,5.82-5.07,8.73-7.61c2.69-2.34,5.38-4.69,8.07-7.03c0.25-0.22,0.47-0.47,0.8-0.6c0.09,0.05,0.2,0.08,0.28,0.15
	c0.24,0.23,0.47,0.47,0.69,0.71c3.67,3.84,7.33,7.67,11,11.51c2.55,2.66,5.09,5.32,7.64,7.99c2.42,2.53,4.84,5.06,7.26,7.59
	c2.67,2.8,5.35,5.59,8.02,8.39c2.52,2.64,5.04,5.27,7.56,7.91c2.49,2.61,4.99,5.22,7.48,7.83c2.47,2.58,4.94,5.17,7.41,7.75
	c2.42,2.53,4.84,5.06,7.26,7.59c2.67,2.8,5.35,5.59,8.02,8.39c2.78,2.9,5.55,5.8,8.33,8.71c2.55,2.66,5.09,5.33,7.64,7.99
	s5.09,5.32,7.64,7.99c2.5,2.61,4.99,5.22,7.49,7.83c2.42,2.53,4.84,5.06,7.26,7.59c2.5,2.61,4.99,5.22,7.49,7.83
	c2.78,2.9,5.55,5.8,8.33,8.71c1.17,1.22,2.34,2.45,3.51,3.68c0.15,0.16,0.28,0.34,0.41,0.52
	C450.44,322.89,450.37,323.03,450.33,323.03z M472.5,302.85c-0.01,0.05-0.08,0.11-0.14,0.15c-0.02,0.01-0.08,0-0.1-0.02
	c-0.16-0.14-0.33-0.28-0.49-0.44c-1.93-2.03-3.86-4.06-5.79-6.08c-2.11-2.21-4.24-4.41-6.35-6.62c-2.68-2.79-5.35-5.59-8.02-8.39
	c-2.55-2.66-5.09-5.33-7.64-7.99c-2.57-2.69-5.14-5.38-7.71-8.07c-2.52-2.64-5.04-5.27-7.56-7.91c-2.55-2.66-5.09-5.33-7.64-7.99
	c-2.44-2.56-4.89-5.11-7.33-7.67c-2.57-2.69-5.14-5.38-7.72-8.07c-2.44-2.56-4.89-5.11-7.33-7.67c-2.67-2.8-5.35-5.59-8.02-8.39
	c-2.6-2.72-5.19-5.43-7.79-8.15c-2.6-2.72-5.19-5.43-7.79-8.15c-2.57-2.69-5.14-5.38-7.71-8.07c-2.55-2.66-5.09-5.33-7.64-7.99
	c-2.55-2.66-5.09-5.33-7.64-7.99c-2.52-2.64-5.04-5.27-7.56-7.91c-0.74-0.77-1.48-1.55-2.21-2.32c-0.1-0.1-0.17-0.23-0.27-0.38
	c0.21-0.2,0.38-0.38,0.57-0.55c1.83-1.6,3.66-3.19,5.49-4.79c3.13-2.73,6.27-5.46,9.4-8.19c2.99-2.61,5.99-5.22,8.98-7.83
	c3.11-2.71,6.21-5.41,9.32-8.12c2.94-2.56,5.88-5.12,8.82-7.68c3.16-2.75,6.32-5.51,9.48-8.26c2.77-2.42,5.54-4.83,8.32-7.25
	c3.24-2.83,6.49-5.65,9.73-8.48c3.13-2.73,6.26-5.46,9.4-8.19c3.1-2.71,6.21-5.41,9.31-8.12c3.05-2.66,6.1-5.32,9.15-7.97
	c3.13-2.73,6.27-5.46,9.4-8.19c2.19-1.91,4.37-3.83,6.56-5.74c3.83-3.33,7.66-6.66,11.49-9.99c1.25-1.09,2.5-2.17,3.75-3.25
	c0.31-0.26,0.62-0.52,0.94-0.77c0.05-0.04,0.17-0.08,0.2-0.05c0.07,0.07,0.14,0.17,0.16,0.27c0.03,0.14,0.02,0.3,0.02,0.44
	c0,0.45,0,0.89,0,1.34c0,80.52,0,161.04,0,241.56c0,1.79,0.01,3.57,0.01,5.36C472.52,302.48,472.52,302.67,472.5,302.85z"/>
</svg>
