<?xml version="1.0" encoding="utf-8"?>
<!-- Generator: Adobe Illustrator 27.0.1, SVG Export Plug-In . SVG Version: 6.00 Build 0)  -->
<svg version="1.1" id="Layer_1" xmlns="http://www.w3.org/2000/svg" xmlns:xlink="http://www.w3.org/1999/xlink" x="0px" y="0px"
	 viewBox="0 0 504 360" style="enable-background:new 0 0 504 360;" xml:space="preserve">
<g>
	<path d="M454.7,184.5c0,10.06,0,20.12,0,30.18c-0.08,0.52-0.2,1.04-0.22,1.56c-0.23,5.46-0.32,10.92-0.68,16.37
		c-0.61,9.35-1.23,18.7-2.14,28.03c-0.81,8.21-1.89,16.4-3.12,24.56c-0.94,6.29-1.71,12.69-3.56,18.74
		c-7.13,23.2-22.56,37.97-46.27,43.62c-5.84,1.39-11.9,1.95-17.87,2.72c-9.19,1.2-18.39,2.35-27.6,3.35
		c-7.68,0.84-15.38,1.5-23.08,2.13c-8.71,0.71-17.43,1.46-26.16,1.91c-11.34,0.59-22.7,0.9-34.04,1.33
		c-0.52,0.02-1.04,0.13-1.56,0.2c-11.22,0-22.44,0-33.66,0c-0.57-0.07-1.14-0.19-1.71-0.2c-5.75-0.18-11.51-0.23-17.25-0.52
		c-10.76-0.55-21.52-1.18-32.28-1.9c-7.52-0.5-15.04-1.11-22.54-1.84c-8.51-0.83-17.01-1.77-25.49-2.82
		c-9.53-1.18-19.14-2.05-28.55-3.91c-24.98-4.94-41.17-19.95-48.91-44.15c-1.73-10.27-3.76-20.5-5.11-30.82
		c-1.37-10.48-2.32-21.03-3-31.58c-0.75-11.57-1.33-23.18-1.38-34.77c-0.06-14.06,0.41-28.13,0.87-42.19
		c0.22-6.76,0.84-13.51,1.49-20.24c0.7-7.35,1.49-14.71,2.52-22.02c1.18-8.31,2.05-16.74,4.16-24.82
		c5.98-22.85,20.47-37.9,43.11-44.95c8.81-1.43,17.58-3.08,26.42-4.24c10.72-1.42,21.48-2.58,32.25-3.58
		c12.99-1.2,25.99-2.32,39.02-3.08c12.88-0.75,25.79-1.22,38.7-1.45c30.24-0.53,60.43,0.48,90.56,3.07c11.36,0.98,22.71,2,34.04,3.3
		c11.36,1.31,22.71,2.83,34.02,4.56c15.04,2.3,27.38,9.61,37.18,21.17c8.06,9.51,12.39,20.65,14.31,32.89
		c2.17,13.84,4.22,27.69,5.22,41.66c0.82,11.42,1.36,22.86,2.03,34.3C454.48,182.2,454.6,183.35,454.7,184.5z M252.86,68.8
		c-13.58,0.37-25.87,0.56-38.13,1.09c-11.78,0.51-23.56,1.21-35.32,2.11c-10.55,0.81-21.08,1.87-31.58,3.09
		c-11.84,1.37-23.67,2.89-35.47,4.62c-14.04,2.06-24.69,12.83-27.15,26.84c-2.66,15.13-4.78,30.34-5.77,45.67
		c-0.88,13.55-1.57,27.12-1.91,40.7c-0.39,15.47,0.14,30.94,1.32,46.38c0.61,8.09,1.21,16.19,2.17,24.25
		c1.11,9.29,2.59,18.54,3.98,27.8c1.08,7.17,4.02,13.48,9.11,18.7c5.53,5.68,12.29,8.8,20.18,9.75c8.34,1,16.63,2.4,24.97,3.34
		c11.9,1.34,23.82,2.55,35.76,3.57c10.83,0.93,21.68,1.74,32.54,2.24c12.99,0.6,26,1.07,39,1.13c13.15,0.06,26.3-0.36,39.45-0.73
		c7.58-0.22,15.16-0.73,22.74-1.18c5.98-0.36,11.96-0.77,17.93-1.28c6.84-0.57,13.67-1.22,20.49-1.93
		c7.3-0.76,14.59-1.59,21.88-2.49c6.66-0.83,13.28-1.93,19.95-2.68c14.73-1.66,26.41-12.59,28.93-27.11
		c2.64-15.19,4.79-30.44,5.78-45.82c0.88-13.65,1.72-27.32,1.87-40.99c0.14-13.72-0.39-27.46-1.02-41.17
		c-0.44-9.6-1.31-19.19-2.42-28.73c-1.15-9.87-2.7-19.7-4.29-29.51c-2.14-13.2-12.08-23.75-25.2-26.43
		c-6.66-1.36-13.44-2.12-20.2-2.92c-12.37-1.46-24.75-2.92-37.16-4.05c-12.65-1.16-25.33-2.17-38.02-2.79
		C282.02,69.51,266.79,69.24,252.86,68.8z"/>
	<path d="M193.58,127.05c48.35,24.17,96.56,48.27,145.09,72.53c-48.5,24.25-96.72,48.36-145.09,72.54
		C193.58,223.7,193.58,175.48,193.58,127.05z"/>
</g>
</svg>
