<?xml version="1.0" standalone="no"?>
<!DOCTYPE svg PUBLIC "-//W3C//DTD SVG 20010904//EN"
 "http://www.w3.org/TR/2001/REC-SVG-20010904/DTD/svg10.dtd">
<svg version="1.0" xmlns="http://www.w3.org/2000/svg"
 width="1890.000000pt" height="1417.000000pt" viewBox="0 0 1890.000000 1417.000000"
 preserveAspectRatio="xMidYMid meet">

<g transform="translate(0.000000,1417.000000) scale(0.100000,-0.100000)"
fill="#ffffff" stroke="none">
<path d="M8735 13724 c-1210 -35 -1758 -66 -2810 -160 -1071 -95 -1604 -160
-2374 -289 -330 -55 -407 -71 -508 -106 -415 -146 -771 -370 -1046 -659 -376
-395 -603 -900 -716 -1590 -87 -529 -202 -1533 -240 -2090 -41 -595 -61 -2293
-33 -2820 67 -1278 128 -1854 301 -2836 92 -520 110 -581 260 -889 139 -282
287 -492 496 -700 348 -347 806 -578 1370 -690 268 -53 687 -108 1630 -215
1009 -114 2222 -199 3345 -236 941 -30 2398 -4 3435 61 911 58 1788 143 2835
275 754 95 837 110 1094 186 978 292 1625 1041 1821 2107 72 395 183 1262 225
1752 74 886 95 1381 95 2280 0 694 -1 740 -33 1260 -75 1252 -100 1505 -243
2440 -64 423 -111 619 -203 858 -285 737 -913 1321 -1646 1532 -163 47 -278
68 -670 124 -1382 199 -2856 331 -4370 392 -250 10 -1778 20 -2015 13z m1300
-1214 c1656 -42 2538 -106 4330 -316 990 -116 1160 -154 1420 -322 258 -166
457 -427 550 -722 68 -218 227 -1345 284 -2020 68 -798 100 -2094 71 -2820
-21 -515 -66 -1267 -95 -1580 -59 -628 -197 -1534 -264 -1733 -164 -484 -591
-839 -1096 -912 -1380 -201 -2712 -331 -4040 -395 -1042 -50 -2304 -52 -3380
-5 -1104 49 -2579 181 -3565 320 -173 24 -385 53 -471 65 -186 24 -313 55
-434 105 -388 160 -687 503 -795 911 -30 114 -150 907 -199 1314 -45 376 -99
1039 -131 1625 -18 317 -24 1157 -11 1540 24 733 69 1516 111 1945 60 608 190
1454 254 1644 117 348 353 628 664 785 171 87 276 113 685 170 1600 227 3028
348 4597 391 764 21 975 26 1040 23 36 -2 250 -8 475 -13z"/>
<path d="M7030 7080 c0 -1661 3 -3020 6 -3020 11 0 6044 3014 6044 3019 0 7
-6026 3021 -6040 3021 -7 0 -10 -1014 -10 -3020z"/>
</g>
</svg>
